# xmcd CD database file
#
# Track frame offsets:
#	150
#	9117
#	43410
#	73859
#	102348
#	112306
#	138608
#	168091
#	200357
#	224615
#
# Disc length: 3418 seconds
#
# Revision: 0
# Processed by: cddbd v1.5.2PL0 Copyright (c) Steve Scherf et al.
# Submitted via: CDex 1.70beta3
#
DISCID=980d580a
DTITLE=Kondo Toshinori - 響命
DYEAR=2017
DGENRE=Jazz
TTITLE0=郷愁
TTITLE1=永遠に強かれ
TTITLE2=小さな星の唄
TTITLE3=忘れられよかふるさと楢葉
TTITLE4=夕暮れ
TTITLE5=山の彼方
TTITLE6=光の中
TTITLE7=祈るいのち
TTITLE8=躍動
TTITLE9=春桜
EXTD=YEAR: 2017
EXTT0=
EXTT1=
EXTT2=
EXTT3=
EXTT4=
EXTT5=
EXTT6=
EXTT7=
EXTT8=
EXTT9=
PLAYORDER=
